<svg width="48" height="48" viewBox="0 0 48 48" fill="none" xmlns="http://www.w3.org/2000/svg">
<g clip-path="url(#clip0_18_8)">
<path fill-rule="evenodd" clip-rule="evenodd" d="M24 48C37.2548 48 48 37.2548 48 24C48 10.7452 37.2548 0 24 0C10.7452 0 0 10.7452 0 24C0 37.2548 10.7452 48 24 48Z" fill="#E31B1B"/>
<path d="M19.2363 38H17.9707V8.89062H19.2363V38ZM16.7051 38H15.4395V8.89062H16.7051V38ZM14.1738 38H12.9082V8.89062H14.1738V38ZM21.7676 31.6719H35.2324V32.9375H21.7676V34.2031H35.2324V35.4688H21.7676V36.7344H35.2324V38H20.502V8.89062H35.2324V10.1562H21.7676V11.4219H35.2324V12.6875H21.7676V13.9531H35.2324V15.2188H21.7676V20.2812H28.6758V21.5469H21.7676V22.8125H28.6758V24.0781H21.7676V25.3438H28.6758V26.6094H21.7676V31.6719Z" fill="#F8F8F2"/>
</g>
<defs>
<clipPath id="clip0_18_8">
<rect width="48" height="48" fill="white"/>
</clipPath>
</defs>
</svg>
